<svg width="206" height="77" viewBox="0 0 206 77" fill="none" xmlns="http://www.w3.org/2000/svg">
<path fill-rule="evenodd" clip-rule="evenodd" d="M59.8063 77H68.0291V75.5049H59.8063V77Z" fill="#252525"/>
<path fill-rule="evenodd" clip-rule="evenodd" d="M59.8063 29.6039V9.86761H39.8698H19.9344H0V29.6039H19.9344V49.3402H39.8698V29.6039H59.8063ZM57.7422 6.57841H59.8063L57.5648 0H55.3498L53.1636 6.51843L53.1944 6.57841H55.099L55.3945 5.44728H57.4478L57.7422 6.57841ZM57.0769 3.98261H55.775L56.2511 2.14019L56.4201 1.44679H56.4488L56.6061 2.14861L57.0769 3.98261ZM53.1413 6.57841L53.1636 6.51843L51.7522 3.93C52.3888 3.67536 52.7512 3.00826 52.7512 2.13177C52.7512 0.65763 51.8499 0 50.0697 0H47.5338V6.57841H49.3852V4.2888H50.0601L51.0348 6.57841H53.1413ZM50.8222 2.20122C50.8222 2.84201 50.6171 2.97354 50.0697 2.97354H49.3852V1.46467H50.0857C50.6362 1.46467 50.8222 1.62251 50.8222 2.20122ZM44.018 5.04324V3.92053H46.2839V2.51793H44.018V1.55306H46.7643L46.7367 0H42.1644V6.57841H46.8525L46.8887 5.04324H44.018ZM41.4991 6.57841L41.5373 5.00009H39.0291V0H37.1585V6.57841H41.4991ZM34.7066 6.57841H36.7684L34.5291 0H32.3141L30.1077 6.57841H32.0633L32.3577 5.44728H34.4111L34.7066 6.57841ZM34.0412 3.98261H32.7372L33.2154 2.14019L33.3865 1.44679H33.4131L33.5704 2.14861L34.0412 3.98261ZM30.0897 6.57841L28.2031 3.13137L29.9908 0H27.8928L26.526 2.51793H26.0031V0H24.1538V6.57841H26.0031V3.93842H26.5016L27.8747 6.57841H30.0897ZM21.6104 6.57841H23.6755L21.434 0H19.2191L17.0105 6.57841H18.9682L19.2637 5.44728H21.3192L21.6104 6.57841ZM20.9462 3.98261H19.6442L20.1225 2.14019L20.2893 1.44679H20.318L20.4775 2.14861L20.9462 3.98261ZM15.8074 3.11348V3.09665C16.3399 2.8599 16.6757 2.42113 16.6757 1.71089C16.6757 0.675518 15.9126 0 14.3811 0H11.5263V6.57841H14.3726C16.1443 6.57841 16.8979 5.83344 16.8979 4.64024C16.8979 3.85108 16.5237 3.3334 15.8074 3.11348ZM14.904 2.02655C14.904 2.44744 14.751 2.60527 14.328 2.60527H13.3098V1.48256H14.3088C14.7446 1.48256 14.904 1.61409 14.904 2.02655ZM15.0454 4.50871C15.0454 5.00009 14.8689 5.13162 14.397 5.13162H13.3098V3.89422H14.3726C14.8774 3.89422 15.0454 4.06994 15.0454 4.50871ZM9.0744 6.57841H11.1384L8.89691 0H6.68198L4.47343 6.57841H6.43222L6.72662 5.44728H8.78L9.0744 6.57841ZM8.41014 3.98261H7.10711L7.58326 2.14019L7.75225 1.44679H7.78094L7.93824 2.14861L8.41014 3.98261ZM3.52752 1.58778H5.20784L5.17277 0H0.0361361L0 1.58778H1.65801V6.57841H3.52752V1.58778Z" fill="#252525"/>
<path d="M67.777 57.9999L65.181 53.6659L67.645 49.7499H65.522L63.531 53.0169H62.64V49.7499H60.781V57.9999H62.64V54.5239H63.509L65.544 57.9999H67.777Z" fill="#252525"/>
<path d="M75.232 49.7499H73.395V55.0299C73.395 56.0419 72.955 56.4709 71.921 56.4709C70.887 56.4709 70.436 56.0309 70.436 55.0299V49.7499H68.588V55.0519C68.588 57.1309 69.743 58.1539 71.921 58.1539C74.11 58.1539 75.232 57.1309 75.232 55.0519V49.7499Z" fill="#252525"/>
<path d="M78.5494 56.3279V49.7499H76.6794V57.9999H81.9044L81.9484 56.3279H78.5494Z" fill="#252525"/>
<path d="M87.7045 51.4219L87.6605 49.7499H81.4455L81.4015 51.4219H83.6125V57.9999H85.4825V51.4219H87.7045Z" fill="#252525"/>
<path d="M95.148 49.7499H93.311V55.0299C93.311 56.0419 92.871 56.4709 91.837 56.4709C90.803 56.4709 90.352 56.0309 90.352 55.0299V49.7499H88.504V55.0519C88.504 57.1309 89.659 58.1539 91.837 58.1539C94.026 58.1539 95.148 57.1309 95.148 55.0519V49.7499Z" fill="#252525"/>
<path d="M102.689 52.3129C102.689 50.5529 101.666 49.7499 99.6205 49.7499H96.5955V57.9999H98.4545V54.9199H99.6205L101.061 57.9999H103.228L101.303 54.5569C102.194 54.2819 102.689 53.4679 102.689 52.3129ZM100.753 52.3899C100.753 53.2809 100.423 53.5339 99.5985 53.5339H98.4545V51.2899H99.6315C100.445 51.2899 100.753 51.5539 100.753 52.3899Z" fill="#252525"/>
<path d="M109.231 57.9999H111.299L108.417 49.7499H106.206L103.357 57.9999H105.315L105.777 56.3939H108.769L109.231 57.9999ZM107.284 51.1469H107.317L107.537 52.0159L108.329 54.8429H106.228L107.053 52.0159L107.284 51.1469Z" fill="#252525"/>
<path d="M121.155 53.5669H119.516V56.3829C119.252 56.4599 118.955 56.4929 118.636 56.4929C117.195 56.4929 116.711 55.9209 116.711 53.8639C116.711 51.8289 117.217 51.2349 118.845 51.2349C119.527 51.2349 120.264 51.3669 120.847 51.5869L121.023 49.9809C120.396 49.7499 119.527 49.6069 118.746 49.6069C115.963 49.6069 114.764 51.0039 114.764 53.8859C114.764 56.7129 115.864 58.1539 118.68 58.1539C119.582 58.1539 120.539 57.9779 121.155 57.6919V53.5669Z" fill="#252525"/>
<path d="M127.654 57.9999H129.722L126.84 49.7499H124.629L121.78 57.9999H123.738L124.2 56.3939H127.192L127.654 57.9999ZM125.707 51.1469H125.74L125.96 52.0159L126.752 54.8429H124.651L125.476 52.0159L125.707 51.1469Z" fill="#252525"/>
<path d="M136.667 52.3129C136.667 50.5529 135.644 49.7499 133.598 49.7499H130.573V57.9999H132.432V54.9199H133.598L135.039 57.9999H137.206L135.281 54.5569C136.172 54.2819 136.667 53.4679 136.667 52.3129ZM134.731 52.3899C134.731 53.2809 134.401 53.5339 133.576 53.5339H132.432V51.2899H133.609C134.423 51.2899 134.731 51.5539 134.731 52.3899Z" fill="#252525"/>
<path d="M143.209 57.9999H145.277L142.395 49.7499H140.184L137.335 57.9999H139.293L139.755 56.3939H142.747L143.209 57.9999ZM141.262 51.1469H141.295L141.515 52.0159L142.307 54.8429H140.206L141.031 52.0159L141.262 51.1469Z" fill="#252525"/>
<path d="M146.249 57.9999H148.141V49.7499H146.249V57.9999Z" fill="#252525"/>
<path d="M156.819 57.9999L154.223 53.6659L156.687 49.7499H154.564L152.573 53.0169H151.682V49.7499H149.823V57.9999H151.682V54.5239H152.551L154.586 57.9999H156.819Z" fill="#252525"/>
<path d="M157.861 57.9999H159.753V49.7499H157.861V57.9999Z" fill="#252525"/>
<path d="M168.233 53.8419C168.233 50.9929 167.144 49.7499 164.526 49.7499H161.435V57.9999H164.548C166.99 57.9999 168.233 56.8229 168.233 53.8419ZM166.286 53.8309C166.286 55.9429 165.78 56.3499 164.515 56.3499H163.294V51.4109H164.504C165.813 51.4109 166.286 51.8729 166.286 53.8309Z" fill="#252525"/>
<path d="M171.351 56.3829V54.5019H174.398V53.0279H171.351V51.3889H174.97L174.937 49.7499H169.492V57.9999H175.102L175.146 56.3829H171.351Z" fill="#252525"/>
<path d="M181.461 57.9999H183.529L180.647 49.7499H178.436L175.587 57.9999H177.545L178.007 56.3939H180.999L181.461 57.9999ZM179.514 51.1469H179.547L179.767 52.0159L180.559 54.8429H178.458L179.283 52.0159L179.514 51.1469Z" fill="#252525"/>
<path d="M190.475 52.3129C190.475 50.5529 189.452 49.7499 187.406 49.7499H184.381V57.9999H186.24V54.9199H187.406L188.847 57.9999H191.014L189.089 54.5569C189.98 54.2819 190.475 53.4679 190.475 52.3129ZM188.539 52.3899C188.539 53.2809 188.209 53.5339 187.384 53.5339H186.24V51.2899H187.417C188.231 51.2899 188.539 51.5539 188.539 52.3899Z" fill="#252525"/>
<path d="M193.716 56.3829V54.5019H196.763V53.0279H193.716V51.3889H197.335L197.302 49.7499H191.857V57.9999H197.467L197.511 56.3829H193.716Z" fill="#252525"/>
<path d="M205.323 57.9999V49.7499H203.684V53.8529L203.706 54.7329L203.684 54.7439L203.189 54.0069L200.252 49.7499H198.668V57.9999H200.318V53.6659L200.307 52.7749L200.329 52.7639L200.824 53.5009L204.025 57.9999H205.323Z" fill="#252525"/>
<path d="M67.436 68.9999V60.7499H65.797V64.8529L65.819 65.7329L65.797 65.7439L65.302 65.0069L62.365 60.7499H60.781V68.9999H62.431V64.6659L62.42 63.7749L62.442 63.7639L62.937 64.5009L66.138 68.9999H67.436Z" fill="#252525"/>
<path d="M74.1578 68.9999H76.2258L73.3438 60.7499H71.1328L68.2838 68.9999H70.2418L70.7038 67.3939H73.6958L74.1578 68.9999ZM72.2108 62.1469H72.2438L72.4638 63.0159L73.2558 65.8429H71.1548L71.9798 63.0159L72.2108 62.1469Z" fill="#252525"/>
<path d="M82.6319 68.9999L82.6649 67.3389H79.0129L79.0019 67.3059L79.5079 66.6129L82.6319 62.1029V60.7499H76.8239L76.7689 62.4219H80.3769L80.3879 62.4439L79.8819 63.1479L76.6809 67.7899V68.9999H82.6319Z" fill="#252525"/>
<path d="M83.9977 68.9999H85.8897V60.7499H83.9977V68.9999Z" fill="#252525"/>
<path d="M94.535 64.8749C94.535 61.9379 93.49 60.6179 90.905 60.6179C88.331 60.6179 87.264 61.9379 87.264 64.8749C87.264 67.8119 88.364 69.1539 90.905 69.1539C93.49 69.1539 94.535 67.8669 94.535 64.8749ZM92.599 64.8749C92.599 66.9539 92.159 67.4929 90.916 67.4929C89.662 67.4929 89.211 66.9649 89.211 64.8749C89.211 62.7849 89.651 62.2789 90.905 62.2789C92.17 62.2789 92.599 62.7849 92.599 64.8749Z" fill="#252525"/>
<path d="M100.659 68.9999H102.727L99.8448 60.7499H97.6338L94.7848 68.9999H96.7428L97.2048 67.3939H100.197L100.659 68.9999ZM98.7118 62.1469H98.7448L98.9648 63.0159L99.7568 65.8429H97.6558L98.4808 63.0159L98.7118 62.1469Z" fill="#252525"/>
<path d="M109.672 63.3129C109.672 61.5529 108.649 60.7499 106.603 60.7499H103.578V68.9999H105.437V65.9199H106.603L108.044 68.9999H110.211L108.286 65.5569C109.177 65.2819 109.672 64.4679 109.672 63.3129ZM107.736 63.3899C107.736 64.2809 107.406 64.5339 106.581 64.5339H105.437V62.2899H106.614C107.428 62.2899 107.736 62.5539 107.736 63.3899Z" fill="#252525"/>
<path d="M116.612 62.4219L116.568 60.7499H110.353L110.309 62.4219H112.52V68.9999H114.39V62.4219H116.612Z" fill="#252525"/>
<path d="M119.38 67.3829V65.5019H122.427V64.0279H119.38V62.3889H122.999L122.966 60.7499H117.521V68.9999H123.131L123.175 67.3829H119.38Z" fill="#252525"/>
<path d="M131.328 68.9999L128.732 64.6659L131.196 60.7499H129.073L127.082 64.0169H126.191V60.7499H124.332V68.9999H126.191V65.5239H127.06L129.095 68.9999H131.328Z" fill="#252525"/>
<path d="M138.782 64.8749C138.782 61.9379 137.737 60.6179 135.152 60.6179C132.578 60.6179 131.511 61.9379 131.511 64.8749C131.511 67.8119 132.611 69.1539 135.152 69.1539C137.737 69.1539 138.782 67.8669 138.782 64.8749ZM136.846 64.8749C136.846 66.9539 136.406 67.4929 135.163 67.4929C133.909 67.4929 133.458 66.9649 133.458 64.8749C133.458 62.7849 133.898 62.2789 135.152 62.2789C136.417 62.2789 136.846 62.7849 136.846 64.8749Z" fill="#252525"/>
<path d="M148.524 68.9999L148.557 67.3389H144.905L144.894 67.3059L145.4 66.6129L148.524 62.1029V60.7499H142.716L142.661 62.4219H146.269L146.28 62.4439L145.774 63.1479L142.573 67.7899V68.9999H148.524Z" fill="#252525"/>
<path d="M151.628 67.3829V65.5019H154.675V64.0279H151.628V62.3889H155.247L155.214 60.7499H149.769V68.9999H155.379L155.423 67.3829H151.628Z" fill="#252525"/>
<path d="M163.235 68.9999V60.7499H161.596V64.8529L161.618 65.7329L161.596 65.7439L161.101 65.0069L158.164 60.7499H156.58V68.9999H158.23V64.6659L158.219 63.7749L158.241 63.7639L158.736 64.5009L161.937 68.9999H163.235Z" fill="#252525"/>
<path d="M170.452 62.4219L170.408 60.7499H164.193L164.149 62.4219H166.36V68.9999H168.23V62.4219H170.452Z" fill="#252525"/>
<path d="M177.455 63.3129C177.455 61.5529 176.432 60.7499 174.386 60.7499H171.361V68.9999H173.22V65.9199H174.386L175.827 68.9999H177.994L176.069 65.5569C176.96 65.2819 177.455 64.4679 177.455 63.3129ZM175.519 63.3899C175.519 64.2809 175.189 64.5339 174.364 64.5339H173.22V62.2899H174.397C175.211 62.2899 175.519 62.5539 175.519 63.3899Z" fill="#252525"/>
<path d="M185.661 64.8749C185.661 61.9379 184.616 60.6179 182.031 60.6179C179.457 60.6179 178.39 61.9379 178.39 64.8749C178.39 67.8119 179.49 69.1539 182.031 69.1539C184.616 69.1539 185.661 67.8669 185.661 64.8749ZM183.725 64.8749C183.725 66.9539 183.285 67.4929 182.042 67.4929C180.788 67.4929 180.337 66.9649 180.337 64.8749C180.337 62.7849 180.777 62.2789 182.031 62.2789C183.296 62.2789 183.725 62.7849 183.725 64.8749Z" fill="#252525"/>
<path d="M191.785 68.9999H193.853L190.971 60.7499H188.76L185.911 68.9999H187.869L188.331 67.3939H191.323L191.785 68.9999ZM189.838 62.1469H189.871L190.091 63.0159L190.883 65.8429H188.782L189.607 63.0159L189.838 62.1469Z" fill="#252525"/>
</svg>
